REM DIRINDEX 1\2,1\3,1\4,1\6,1\5\7,1\5\8
REM DIRNAME cjc114,folder01,folder02,folder03,folder04,folder05,folder06,folder07
TITLE ""
FILE "DB4500_5th_5C_16.mp3" MP3
  TRACK 01 AUDIO
    TITLE "0:"
    INDEX 01 00:00:00
  TRACK 02 AUDIO
    TITLE "2:cjc114_3756"
    INDEX 01 00:00:01
  TRACK 03 AUDIO
    TITLE "0:"
    INDEX 01 00:01:21
  TRACK 04 AUDIO
    TITLE "3:cjc114_3757"
    INDEX 01 00:01:32
  TRACK 05 AUDIO
    TITLE "0:"
    INDEX 01 00:02:42
  TRACK 06 AUDIO
    TITLE "4:cjc114_3758"
    INDEX 01 00:02:53
  TRACK 07 AUDIO
    TITLE "0:"
    INDEX 01 00:05:42
  TRACK 08 AUDIO
    TITLE "2:cjc114_3759"
    INDEX 01 00:06:06
  TRACK 09 AUDIO
    TITLE "0:"
    INDEX 01 00:07:27
  TRACK 10 AUDIO
    TITLE "3:cjc114_3760"
    INDEX 01 00:07:43
  TRACK 11 AUDIO
    TITLE "0:"
    INDEX 01 00:08:64
  TRACK 12 AUDIO
    TITLE "4:cjc114_3761"
    INDEX 01 00:09:06
  TRACK 13 AUDIO
    TITLE "0:"
    INDEX 01 00:12:42
  TRACK 14 AUDIO
    TITLE "2:cjc114_3762"
    INDEX 01 00:13:06
  TRACK 15 AUDIO
    TITLE "0:"
    INDEX 01 00:14:06
  TRACK 16 AUDIO
    TITLE "3:cjc114_3763"
    INDEX 01 00:14:19
  TRACK 17 AUDIO
    TITLE "0:"
    INDEX 01 00:15:23
  TRACK 18 AUDIO
    TITLE "4:cjc114_3764"
    INDEX 01 00:15:36
  TRACK 19 AUDIO
    TITLE "0:"
    INDEX 01 00:17:41
  TRACK 20 AUDIO
    TITLE "2:cjc114_3765"
    INDEX 01 00:18:03
  TRACK 21 AUDIO
    TITLE "0:"
    INDEX 01 00:19:15
  TRACK 22 AUDIO
    TITLE "3:cjc114_3766"
    INDEX 01 00:19:28
  TRACK 23 AUDIO
    TITLE "0:"
    INDEX 01 00:20:45
  TRACK 24 AUDIO
    TITLE "4:cjc114_3767"
    INDEX 01 00:20:57
  TRACK 25 AUDIO
    TITLE "0:"
    INDEX 01 00:23:73
  TRACK 26 AUDIO
    TITLE "2:cjc114_3768"
    INDEX 01 00:24:37
  TRACK 27 AUDIO
    TITLE "0:"
    INDEX 01 00:25:35
  TRACK 28 AUDIO
    TITLE "3:cjc114_3769"
    INDEX 01 00:25:48
  TRACK 29 AUDIO
    TITLE "0:"
    INDEX 01 00:26:52
  TRACK 30 AUDIO
    TITLE "4:cjc114_3770"
    INDEX 01 00:26:69
  TRACK 31 AUDIO
    TITLE "0:"
    INDEX 01 00:30:50
  TRACK 32 AUDIO
    TITLE "2:cjc114_3771"
    INDEX 01 00:31:12
  TRACK 33 AUDIO
    TITLE "0:"
    INDEX 01 00:32:25
  TRACK 34 AUDIO
    TITLE "3:cjc114_3772"
    INDEX 01 00:32:39
  TRACK 35 AUDIO
    TITLE "0:"
    INDEX 01 00:33:50
  TRACK 36 AUDIO
    TITLE "4:cjc114_3773"
    INDEX 01 00:33:64
  TRACK 37 AUDIO
    TITLE "0:"
    INDEX 01 00:36:62
  TRACK 38 AUDIO
    TITLE "2:cjc114_3774"
    INDEX 01 00:37:24
  TRACK 39 AUDIO
    TITLE "0:"
    INDEX 01 00:38:30
  TRACK 40 AUDIO
    TITLE "3:cjc114_3775"
    INDEX 01 00:38:41
  TRACK 41 AUDIO
    TITLE "0:"
    INDEX 01 00:39:62
  TRACK 42 AUDIO
    TITLE "4:cjc114_3776"
    INDEX 01 00:40:01
  TRACK 43 AUDIO
    TITLE "0:"
    INDEX 01 00:42:41
  TRACK 44 AUDIO
    TITLE "2:cjc114_3777"
    INDEX 01 00:43:01
  TRACK 45 AUDIO
    TITLE "0:"
    INDEX 01 00:43:72
  TRACK 46 AUDIO
    TITLE "3:cjc114_3778"
    INDEX 01 00:44:12
  TRACK 47 AUDIO
    TITLE "0:"
    INDEX 01 00:45:61
  TRACK 48 AUDIO
    TITLE "4:cjc114_3779"
    INDEX 01 00:46:02
  TRACK 49 AUDIO
    TITLE "0:"
    INDEX 01 00:49:49
  TRACK 50 AUDIO
    TITLE "2:cjc114_3780"
    INDEX 01 00:50:11
  TRACK 51 AUDIO
    TITLE "0:"
    INDEX 01 00:51:20
  TRACK 52 AUDIO
    TITLE "3:cjc114_3781"
    INDEX 01 00:51:36
  TRACK 53 AUDIO
    TITLE "0:"
    INDEX 01 00:52:53
  TRACK 54 AUDIO
    TITLE "4:cjc114_3782"
    INDEX 01 00:52:69
  TRACK 55 AUDIO
    TITLE "0:"
    INDEX 01 00:56:74
  TRACK 56 AUDIO
    TITLE "2:cjc114_3783"
    INDEX 01 00:57:39
  TRACK 57 AUDIO
    TITLE "0:"
    INDEX 01 00:58:66
  TRACK 58 AUDIO
    TITLE "3:cjc114_3784"
    INDEX 01 00:59:02
  TRACK 59 AUDIO
    TITLE "0:"
    INDEX 01 00:59:63
  TRACK 60 AUDIO
    TITLE "4:cjc114_3785"
    INDEX 01 01:00:02
  TRACK 61 AUDIO
    TITLE "0:"
    INDEX 01 01:03:59
  TRACK 62 AUDIO
    TITLE "2:cjc114_3786"
    INDEX 01 01:04:21
  TRACK 63 AUDIO
    TITLE "0:"
    INDEX 01 01:05:15
  TRACK 64 AUDIO
    TITLE "3:cjc114_3787"
    INDEX 01 01:05:30
  TRACK 65 AUDIO
    TITLE "0:"
    INDEX 01 01:06:45
  TRACK 66 AUDIO
    TITLE "4:cjc114_3788"
    INDEX 01 01:06:59
  TRACK 67 AUDIO
    TITLE "0:"
    INDEX 01 01:10:18
  TRACK 68 AUDIO
    TITLE "2:cjc114_3789"
    INDEX 01 01:10:55
  TRACK 69 AUDIO
    TITLE "0:"
    INDEX 01 01:11:68
  TRACK 70 AUDIO
    TITLE "3:cjc114_3790"
    INDEX 01 01:12:09
  TRACK 71 AUDIO
    TITLE "0:"
    INDEX 01 01:13:30
  TRACK 72 AUDIO
    TITLE "4:cjc114_3791"
    INDEX 01 01:13:42
  TRACK 73 AUDIO
    TITLE "0:"
    INDEX 01 01:17:26
